<svg width="1092" height="512" viewBox="0 0 1092 512" fill="none" xmlns="http://www.w3.org/2000/svg">
    <path
        d="M1089.32 160.25C1090.65 158.309 1091.3 156.339 1091.19 154.58C1091.08 152.82 1090.22 151.347 1088.7 150.341L868.326 1.48684C866.999 0.595317 865.224 0.0876642 863.162 0.0103743C861.1 -0.0669157 858.817 0.288634 856.523 1.04445L305.79 185.626C303.314 186.377 300.89 187.582 298.785 189.109C296.68 190.636 294.977 192.424 293.861 194.278C292.746 196.132 292.263 197.978 292.465 199.615C292.667 201.251 293.546 202.613 295.005 203.551L416.346 285.512L12.0545 446.234C9.67225 447.205 7.42371 448.546 5.51896 450.133C3.6142 451.72 2.11527 453.501 1.16211 455.309C0.208943 457.117 -0.16734 458.894 0.0683146 460.474C0.303969 462.053 1.14391 463.384 2.50973 464.342L49.9702 496.399C51.0576 497.149 52.4587 497.638 54.0843 497.834C55.7099 498.03 57.5244 497.93 59.4123 497.539L763.306 351.258C766.004 350.753 768.772 349.666 771.255 348.137C773.738 346.607 775.823 344.705 777.243 342.674C778.662 340.642 779.351 338.575 779.222 336.736C779.093 334.897 778.151 333.371 776.518 332.353L669.89 260.33L1076.16 168.718C1078.76 168.146 1081.38 167.04 1083.72 165.537C1086.06 164.033 1088 162.196 1089.32 160.25Z"
        fill="#F5EAD1" />
    <path
        d="M294.118 216.114C291.679 212.199 291.672 209.661 296.118 204.114L417.117 285.614L404.617 290.614L294.118 216.114Z"
        fill="#6A5726" />
    <path
        d="M1076.62 181.614C1086.12 179.614 1097.12 166.614 1087.12 162.614C1087.12 162.614 1082.62 167.114 1074.62 169.114L670.117 260.114L684.617 270.114L1076.62 181.614Z"
        fill="#6A5726" />
    <path
        d="M776.618 356.614C782.618 349.614 775.618 344.614 775.618 344.614C771.079 348.685 768.485 349.529 763.117 351.114L61.6169 497.114C61.6169 497.114 57.6735 498.358 55.1169 498.114C53.0875 497.92 50.1169 496.614 50.1169 496.614L3.61791 465.114C-0.872011 470.819 -0.87628 473.594 2.61791 477.614C6.11209 481.633 49.6179 509.114 49.6179 509.114C52.2248 510.758 53.8722 511.181 57.1179 511.114L763.618 364.114C763.618 364.114 770.618 363.614 776.618 356.614Z"
        fill="#6A5726" />
</svg>
