<svg width="1093" height="512" viewBox="0 0 1093 512" fill="none" xmlns="http://www.w3.org/2000/svg">
    <path
        d="M1090.2 160.637C1091.53 158.696 1092.18 156.726 1092.07 154.966C1091.96 153.207 1091.1 151.734 1089.58 150.727L869.209 1.87356C867.882 0.982036 866.107 0.474383 864.044 0.397093C861.982 0.319803 859.7 0.675352 857.406 1.43117L306.673 186.013C304.197 186.764 301.773 187.969 299.668 189.496C297.563 191.022 295.859 192.811 294.744 194.665C293.629 196.518 293.146 198.365 293.348 200.001C293.549 201.638 294.429 203 295.888 203.938L417.229 285.899L12.9373 446.621C10.5551 447.591 8.30653 448.933 6.40177 450.52C4.49701 452.107 2.99809 453.888 2.04492 455.696C1.09176 457.504 0.715472 459.281 0.951127 460.861C1.18678 462.44 2.02672 463.771 3.39254 464.729L50.853 496.786C51.9404 497.536 53.3415 498.024 54.9671 498.221C56.5927 498.417 58.4072 498.316 60.2952 497.925L764.189 351.645C766.887 351.14 769.655 350.053 772.138 348.523C774.621 346.994 776.706 345.091 778.125 343.06C779.545 341.029 780.234 338.962 780.105 337.123C779.976 335.284 779.034 333.758 777.4 332.74L670.773 260.717L1077.04 169.105C1079.64 168.533 1082.27 167.427 1084.6 165.923C1086.94 164.42 1088.88 162.583 1090.2 160.637Z"
        fill="#3D3325" />
    <path d="M295.001 216.5C292.562 212.585 292.555 210.048 297.001 204.5L418 286L405.5 291L295.001 216.5Z"
        fill="#E1C171" />
    <path
        d="M1077.5 182C1087 180 1098 167 1088 163C1088 163 1083.5 167.5 1075.5 169.5L671 260.5L685.5 270.5L1077.5 182Z"
        fill="#E1C171" />
    <path
        d="M777.501 357C783.501 350 776.501 345 776.501 345C771.962 349.072 769.367 349.916 764 351.5L62.4997 497.5C62.4997 497.5 58.5563 498.745 55.9997 498.5C53.9704 498.306 50.9997 497 50.9997 497L4.50072 465.5C0.0108013 471.206 0.00653219 473.981 3.50072 478C6.99491 482.02 50.5007 509.5 50.5007 509.5C53.1076 511.144 54.7551 511.568 58.0007 511.5L764.501 364.5C764.501 364.5 771.501 364 777.501 357Z"
        fill="#E1C171" />
</svg>
