<svg width="185" height="162" viewBox="0 0 185 162" fill="none" xmlns="http://www.w3.org/2000/svg">
<path d="M129.805 79.2595H109.42L89.0351 45.3607L71.6431 76.4329L70.0657 79.2595L25.3927 159.07H2.5L89.8845 8.91797L128.187 76.4329L129.805 79.2595Z" stroke="#F5EAD1" stroke-width="5" stroke-linejoin="round"/>
<path d="M171.89 159.07H45.4136L77.9932 100.459H139.128L149.3 119.841H91.0372L79.5706 139.244H159.493L171.89 159.07Z" stroke="#F5EAD1" stroke-width="5" stroke-linejoin="round"/>
<path d="M140.415 72.8415H120.03L99.6454 38.9427L82.2535 70.015L80.6761 72.8415L36.003 152.652H13.1104L100.495 2.5L138.798 70.015L140.415 72.8415Z" stroke="#846D30" stroke-width="5" stroke-linejoin="round"/>
<path d="M182.5 152.652H56.024L88.6036 94.0409H149.738L159.911 113.423H101.648L90.181 132.826H170.103L182.5 152.652Z" stroke="#846D30" stroke-width="5" stroke-linejoin="round"/>
</svg>
