<svg width="184" height="161" viewBox="0 0 184 161" fill="none" xmlns="http://www.w3.org/2000/svg">
<path d="M127.81 78.7475H107.664L87.5188 44.8432L70.3311 75.9205L68.7722 78.7475L24.6238 158.571H2L88.3582 8.39453L126.211 75.9205L127.81 78.7475Z" stroke="#6A5726" stroke-width="4" stroke-linejoin="round"/>
<path d="M169.4 158.571H44.4096L76.6066 99.9503H137.023L147.076 119.336H89.4973L78.1655 138.741H157.149L169.4 158.571Z" stroke="#6A5726" stroke-width="4" stroke-linejoin="round"/>
<path d="M140.41 72.353H120.264L100.119 38.4487L82.9309 69.5259L81.372 72.353L37.2237 152.177H14.5999L100.958 2L138.811 69.5259L140.41 72.353Z" stroke="#F5EAD1" stroke-width="4" stroke-linejoin="round"/>
<path d="M182 152.177H57.0095L89.2064 93.5558H149.623L159.676 112.941H102.097L90.7653 132.347H169.749L182 152.177Z" stroke="#F5EAD1" stroke-width="4" stroke-linejoin="round"/>
</svg>
